<svg width="24" height="24" viewBox="0 0 24 24" fill="none" xmlns="http://www.w3.org/2000/svg">
<path d="M11.9999 0.480469C5.63746 0.480469 0.479858 5.63807 0.479858 12.0005C0.479858 18.3629 5.63746 23.5205 11.9999 23.5205C18.3623 23.5205 23.5199 18.3629 23.5199 12.0005C23.5199 5.63807 18.3623 0.480469 11.9999 0.480469ZM9.17986 16.7753H6.84706V9.26807H9.17986V16.7753ZM7.99906 8.34647C7.26226 8.34647 6.78586 7.82447 6.78586 7.17887C6.78586 6.52007 7.27666 6.01367 8.02906 6.01367C8.78146 6.01367 9.24226 6.52007 9.25666 7.17887C9.25666 7.82447 8.78146 8.34647 7.99906 8.34647ZM17.6999 16.7753H15.3671V12.6149C15.3671 11.6465 15.0287 10.9889 14.1851 10.9889C13.5407 10.9889 13.1579 11.4341 12.9887 11.8625C12.9263 12.0149 12.9107 12.2309 12.9107 12.4457V16.7741H10.5767V11.6621C10.5767 10.7249 10.5467 9.94127 10.5155 9.26687H12.5423L12.6491 10.3097H12.6959C13.0031 9.82007 13.7555 9.09767 15.0143 9.09767C16.5491 9.09767 17.6999 10.1261 17.6999 12.3365V16.7753Z" fill="white"/>
</svg>
