<svg width="40" height="40" viewBox="0 0 40 40" fill="none" xmlns="http://www.w3.org/2000/svg">
<path d="M3.5 20.9281C3.5 15.8237 3.5 13.2715 5.19146 11.6858C6.88291 10.1 9.60528 10.1 15.05 10.1H24.95C30.3947 10.1 33.117 10.1 34.8086 11.6858C36.5 13.2715 36.5 15.8237 36.5 20.9281V24.0219C36.5 29.1263 36.5 31.6785 34.8086 33.2642C33.117 34.85 30.3947 34.85 24.95 34.85H15.05C9.60528 34.85 6.88291 34.85 5.19146 33.2642C3.5 31.6785 3.5 29.1263 3.5 24.0219V20.9281Z" stroke="#4A3B00" stroke-opacity="0.2" stroke-width="2.475" stroke-linecap="round" stroke-linejoin="round"/>
<path d="M15.0499 22.475H24.9499M19.9999 17.525V27.425" stroke="#4A3B00" stroke-opacity="0.2" stroke-width="2.475" stroke-linecap="round" stroke-linejoin="round"/>
<path d="M28.25 10.1C28.25 6.00472 27.3953 5.15002 23.3 5.15002H16.7C12.6047 5.15002 11.75 6.00472 11.75 10.1" stroke="#4A3B00" stroke-opacity="0.2" stroke-width="2.475" stroke-linecap="round" stroke-linejoin="round"/>
</svg>
