<svg width="48" height="48" viewBox="0 0 48 48" fill="none" xmlns="http://www.w3.org/2000/svg">
<path d="M7.99988 18C6.93901 18 5.9216 18.4214 5.17145 19.1716C4.42131 19.9217 3.99988 20.9391 3.99988 22V26C3.99988 27.0609 4.42131 28.0783 5.17145 28.8284C5.9216 29.5786 6.93901 30 7.99988 30H15.9999C16.5303 30 17.039 30.2107 17.4141 30.5858C17.7892 30.9609 17.9999 31.4696 17.9999 32V40C17.9999 41.0609 18.4213 42.0783 19.1715 42.8284C19.9216 43.5786 20.939 44 21.9999 44H25.9999C27.0607 44 28.0782 43.5786 28.8283 42.8284C29.5785 42.0783 29.9999 41.0609 29.9999 40V32C29.9999 31.4696 30.2106 30.9609 30.5857 30.5858C30.9607 30.2107 31.4694 30 31.9999 30H39.9999C41.0607 30 42.0782 29.5786 42.8283 28.8284C43.5785 28.0783 43.9999 27.0609 43.9999 26V22C43.9999 20.9391 43.5785 19.9217 42.8283 19.1716C42.0782 18.4214 41.0607 18 39.9999 18H31.9999C31.4694 18 30.9607 17.7893 30.5857 17.4142C30.2106 17.0391 29.9999 16.5304 29.9999 16V8C29.9999 6.93913 29.5785 5.92172 28.8283 5.17157C28.0782 4.42143 27.0607 4 25.9999 4H21.9999C20.939 4 19.9216 4.42143 19.1715 5.17157C18.4213 5.92172 17.9999 6.93913 17.9999 8V16C17.9999 16.5304 17.7892 17.0391 17.4141 17.4142C17.039 17.7893 16.5303 18 15.9999 18H7.99988Z" fill="#3B5284" stroke="#3B5284" stroke-width="3.42857" stroke-linecap="round" stroke-linejoin="round"/>
</svg>
