<svg width="24" height="24" viewBox="0 0 24 24" fill="none" xmlns="http://www.w3.org/2000/svg">
<path d="M13.9314 12.2915C13.9242 12.6717 13.8042 13.0411 13.5868 13.353C13.3693 13.6649 13.0642 13.9052 12.71 14.0435C12.3558 14.1817 11.9686 14.2117 11.5973 14.1296C11.2261 14.0476 10.8876 13.8571 10.6247 13.5825C10.3618 13.3078 10.1864 12.9612 10.1207 12.5867C10.055 12.2123 10.1019 11.8267 10.2556 11.4789C10.4093 11.1312 10.6627 10.8368 10.9839 10.6333C11.305 10.4297 11.6793 10.3261 12.0594 10.3356C12.5645 10.3543 13.0424 10.5689 13.3919 10.9341C13.7414 11.2992 13.9349 11.7861 13.9314 12.2915Z" fill="white"/>
<path d="M15.3152 6.28027H8.80523C8.16108 6.28027 7.54332 6.53616 7.08783 6.99164C6.63235 7.44713 6.37646 8.06489 6.37646 8.70904V15.3654C6.37646 15.6843 6.43929 16.0001 6.56134 16.2948C6.6834 16.5895 6.8623 16.8572 7.08783 17.0828C7.31337 17.3083 7.58111 17.4872 7.87578 17.6093C8.17046 17.7313 8.48628 17.7941 8.80523 17.7941H15.3152C15.6341 17.7941 15.9499 17.7313 16.2446 17.6093C16.5393 17.4872 16.807 17.3083 17.0326 17.0828C17.2581 16.8572 17.437 16.5895 17.559 16.2948C17.6811 16.0001 17.7439 15.6843 17.7439 15.3654V8.72104C17.7452 8.40117 17.6833 8.0842 17.5619 7.78828C17.4404 7.49237 17.2617 7.22333 17.0361 6.99659C16.8105 6.76985 16.5423 6.58986 16.247 6.46694C15.9517 6.34402 15.635 6.28059 15.3152 6.28027ZM12.0596 15.5478C11.4152 15.5623 10.781 15.3845 10.2381 15.0371C9.69512 14.6896 9.26802 14.1883 9.01126 13.597C8.7545 13.0058 8.67973 12.3514 8.79649 11.7175C8.91326 11.0835 9.21626 10.4988 9.66683 10.0378C10.1174 9.57683 10.6951 9.26057 11.3262 9.12936C11.9573 8.99816 12.6132 9.05798 13.2101 9.30118C13.8071 9.54437 14.3181 9.95993 14.6778 10.4948C15.0376 11.0297 15.2298 11.6596 15.23 12.3042C15.2352 12.7255 15.1573 13.1436 15.0007 13.5347C14.8441 13.9258 14.612 14.2822 14.3175 14.5835C14.023 14.8848 13.672 15.125 13.2846 15.2905C12.8971 15.4559 12.4809 15.5434 12.0596 15.5478ZM15.5827 9.06184C15.5036 9.06185 15.4252 9.04607 15.3522 9.01541C15.2792 8.98475 15.213 8.93984 15.1576 8.88329C15.1022 8.82674 15.0586 8.75971 15.0294 8.6861C15.0002 8.6125 14.986 8.53381 14.9876 8.45465C14.9876 8.29361 15.0515 8.13917 15.1654 8.0253C15.2793 7.91143 15.4337 7.84745 15.5947 7.84745C15.7558 7.84745 15.9102 7.91143 16.0241 8.0253C16.138 8.13917 16.2019 8.29361 16.2019 8.45465C16.2043 8.54037 16.1882 8.6256 16.1545 8.70449C16.1209 8.78338 16.0707 8.85408 16.0072 8.91174C15.9437 8.96941 15.8685 9.01267 15.7868 9.03858C15.705 9.06448 15.6186 9.07242 15.5335 9.06184H15.5827Z" fill="white"/>
<path d="M12.06 0.000150207C8.87744 -0.0157626 5.81891 1.23324 3.55725 3.4724C1.29559 5.71156 0.016063 8.75744 0.000150207 11.94C-0.0157626 15.1226 1.23324 18.1811 3.4724 20.4428C5.71156 22.7044 8.75744 23.9839 11.94 23.9999C13.5158 24.0077 15.0778 23.7051 16.5367 23.1094C17.9956 22.5136 19.3229 21.6363 20.4428 20.5276C21.5626 19.4189 22.4531 18.1005 23.0635 16.6476C23.6738 15.1947 23.992 13.6358 23.9999 12.06C24.0077 10.4842 23.7051 8.92219 23.1094 7.46329C22.5136 6.00438 21.6363 4.67711 20.5276 3.55725C19.4189 2.43739 18.1005 1.54687 16.6476 0.936545C15.1947 0.326217 13.6358 0.00802942 12.06 0.000150207ZM19.3475 15.2424C19.3509 15.7807 19.2473 16.3144 19.0429 16.8124C18.8384 17.3104 18.5372 17.7629 18.1565 18.1437C17.7759 18.5244 17.3235 18.8258 16.8255 19.0304C16.3275 19.235 15.7939 19.3387 15.2556 19.3355H8.86684C8.32849 19.3389 7.79483 19.2353 7.29679 19.0309C6.79875 18.8264 6.34625 18.5252 5.96552 18.1445C5.58478 17.7639 5.28338 17.3115 5.0788 16.8135C4.87421 16.3155 4.7705 15.7819 4.77369 15.2436V8.85364C4.77035 8.31529 4.8739 7.78162 5.07834 7.28359C5.28278 6.78555 5.58404 6.33305 5.96467 5.95232C6.34529 5.57158 6.7977 5.27018 7.29568 5.0656C7.79365 4.86101 8.32729 4.7573 8.86564 4.76049H15.2556C15.7938 4.75731 16.3273 4.86097 16.8252 5.06549C17.3231 5.27 17.7755 5.57129 18.1561 5.95189C18.5367 6.3325 18.838 6.78486 19.0425 7.28276C19.247 7.78065 19.3507 8.31419 19.3475 8.85244V15.2424Z" fill="white"/>
</svg>
