<svg width="48" height="49" viewBox="0 0 48 49" fill="none" xmlns="http://www.w3.org/2000/svg">
<path d="M24 44.5C35.0457 44.5 44 35.5457 44 24.5C44 13.4543 35.0457 4.5 24 4.5C12.9543 4.5 4 13.4543 4 24.5C4 35.5457 12.9543 44.5 24 44.5Z" stroke="#CBE54E" stroke-width="5"/>
<path d="M19 22.8996V26.1004C19 29.139 19 30.6582 19.9115 31.2724C20.823 31.8864 22.0696 31.207 24.563 29.8482L27.4994 28.2476C30.4998 26.6124 32 25.7948 32 24.5C32 23.2052 30.4998 22.3876 27.4994 20.7524L24.563 19.1519C22.0696 17.793 20.823 17.1136 19.9115 17.7276C19 18.3417 19 19.861 19 22.8996Z" fill="#CBE54E"/>
</svg>
