<svg width="40" height="40" viewBox="0 0 40 40" fill="none" xmlns="http://www.w3.org/2000/svg">
<path d="M21.6523 3.49998C23.4738 3.49998 24.9505 5.03656 24.9505 6.93203C24.9505 8.49808 25.0097 9.89167 23.7442 11.0437C19.6019 14.8146 17.5306 16.7 15.0505 16.7C12.5703 16.7 10.4991 14.8146 6.35671 11.0437C5.09105 9.89157 5.15046 8.49783 5.15046 6.93167C5.15046 5.0364 6.62693 3.49998 8.44825 3.49998" stroke="#001944" stroke-opacity="0.2" stroke-width="2.475" stroke-linecap="round" stroke-linejoin="round"/>
<path d="M15.05 23.3V29.0747C15.05 33.1756 18.3746 36.5002 22.4755 36.5002C26.5766 36.5002 29.9012 33.1756 29.9012 29.0747V26.6" stroke="#001944" stroke-opacity="0.2" stroke-width="2.475" stroke-linecap="round" stroke-linejoin="round"/>
<path d="M23.3 11.75L21.1514 17.1217C20.5802 18.5496 20.2946 19.2636 19.8164 19.8502C19.3381 20.4369 18.6962 20.8605 17.4127 21.7076L14.9999 23.3L12.6292 21.7033C11.3742 20.8581 10.7467 20.4354 10.2786 19.8558C9.81051 19.2761 9.52953 18.5737 8.96757 17.1687L6.80005 11.75" stroke="#001944" stroke-opacity="0.2" stroke-width="2.475" stroke-linecap="round" stroke-linejoin="round"/>
<path d="M34.85 21.65C34.85 24.3839 32.6338 26.6 29.9 26.6C27.1661 26.6 24.95 24.3839 24.95 21.65C24.95 18.9161 27.1661 16.7 29.9 16.7C32.6338 16.7 34.85 18.9161 34.85 21.65Z" stroke="#001944" stroke-opacity="0.2" stroke-width="2.475"/>
<path d="M29.9133 21.65H29.8984" stroke="#001944" stroke-opacity="0.2" stroke-width="3.3" stroke-linecap="round" stroke-linejoin="round"/>
</svg>
